<?xml version="1.0" encoding="UTF-8"?>
<svg width="615px" height="129px" viewBox="0 0 615 129" version="1.1" xmlns="http://www.w3.org/2000/svg" xmlns:xlink="http://www.w3.org/1999/xlink">
    <!-- Generator: sketchtool 53.2 (72643) - https://sketchapp.com -->
    <title>D5B1D164-BDBC-4ACE-9501-CD1AB0E3C125</title>
    <desc>Created with sketchtool.</desc>
    <defs>
        <polygon id="path-1" points="0.7622 0.759 42.122 0.759 42.122 58.679 0.7622 58.679"></polygon>
        <polygon id="path-3" points="0 0.0194 42.9784008 0.0194 42.9784008 91.1454 0 91.1454"></polygon>
        <polygon id="path-5" points="0.324 0.2493 19.987 0.2493 19.987 34 0.324 34"></polygon>
        <polygon id="path-7" points="0 0.0194 42.9784008 0.0194 42.9784008 91.1454 0 91.1454"></polygon>
    </defs>
    <g id="Symbols" stroke="none" stroke-width="1" fill="none" fill-rule="evenodd">
        <g id="Logo/Default">
            <path d="M95.6926,18.7401 L128.3326,18.7401 C128.6526,20.3401 128.8126,21.9681 128.8126,23.6201 C128.8126,25.3801 128.6526,27.0601 128.3326,28.6601 L107.3726,28.6601 L107.3726,42.1801 L124.0126,42.1801 C124.3326,43.8871 124.4926,45.5401 124.4926,47.1401 C124.4926,48.8471 124.3326,50.5281 124.0126,52.1801 L107.3726,52.1801 L107.3726,76.2601 C105.3446,76.5801 103.4246,76.7401 101.6126,76.7401 C99.6386,76.7401 97.6646,76.5801 95.6926,76.2601 L95.6926,18.7401 Z" id="Fill-1" fill="#212529"></path>
            <path d="M136.2516,18.7401 C138.2236,18.4201 140.1716,18.2601 142.0916,18.2601 C144.0116,18.2601 145.9836,18.4201 148.0116,18.7401 L148.0116,76.2601 C145.9836,76.5801 144.0376,76.7401 142.1716,76.7401 C140.1976,76.7401 138.2236,76.5801 136.2516,76.2601 L136.2516,18.7401 Z" id="Fill-3" fill="#212529"></path>
            <path d="M159.7707,18.7401 C162.1167,18.4741 164.3167,18.2471 166.3707,18.0601 C168.4227,17.8741 170.7027,17.7801 173.2107,17.7801 C176.1437,17.7801 179.0367,18.0481 181.8907,18.5801 C184.7427,19.1141 187.3167,20.0601 189.6107,21.4201 C191.9027,22.7801 193.7567,24.6201 195.1707,26.9401 C196.5837,29.2601 197.2907,32.2071 197.2907,35.7801 C197.2907,37.9141 197.0227,39.7941 196.4907,41.4201 C195.9567,43.0481 195.2767,44.4741 194.4507,45.7001 C193.6237,46.9271 192.7307,47.9801 191.7707,48.8601 C190.8107,49.7401 189.9027,50.4481 189.0507,50.9801 L187.6907,51.8601 L201.6907,76.1801 C200.6237,76.2861 199.5027,76.3931 198.3307,76.5001 C197.1567,76.6071 195.9567,76.6601 194.7307,76.6601 C192.7027,76.6601 190.7027,76.5001 188.7307,76.1801 L173.6907,49.4601 L175.6107,48.5001 C176.3567,48.1281 177.2627,47.6481 178.3307,47.0601 C179.3967,46.4741 180.4227,45.7401 181.4107,44.8601 C182.3967,43.9801 183.2367,42.9141 183.9307,41.6601 C184.6237,40.4071 184.9707,38.9271 184.9707,37.2201 C184.9707,33.8601 184.0107,31.3941 182.0907,29.8201 C180.1707,28.2471 177.6907,27.4601 174.6507,27.4601 C173.4767,27.4601 172.4107,27.5401 171.4507,27.7001 L171.4507,76.2601 C170.4907,76.3661 169.5307,76.4601 168.5707,76.5401 C167.6107,76.6201 166.6767,76.6601 165.7707,76.6601 C164.8627,76.6601 163.9027,76.6331 162.8907,76.5801 C161.8767,76.5271 160.8367,76.4201 159.7707,76.2601 L159.7707,18.7401 Z" id="Fill-5" fill="#212529"></path>
            <path d="M218.57,49.62 C216.756,48.928 215.13,48.168 213.69,47.34 C212.25,46.514 211.023,45.528 210.01,44.38 C208.996,43.234 208.21,41.86 207.65,40.26 C207.09,38.66 206.81,36.74 206.81,34.5 C206.81,31.78 207.276,29.38 208.21,27.3 C209.142,25.22 210.463,23.474 212.17,22.06 C213.876,20.648 215.93,19.58 218.33,18.86 C220.73,18.14 223.423,17.78 226.41,17.78 C229.13,17.78 231.676,18.02 234.05,18.5 C236.423,18.98 238.916,19.674 241.53,20.58 C241.21,23.674 240.356,26.714 238.97,29.7 C238.17,29.38 237.356,29.06 236.53,28.74 C235.702,28.42 234.822,28.154 233.89,27.94 C232.956,27.727 231.903,27.554 230.73,27.42 C229.556,27.287 228.222,27.22 226.73,27.22 C225.822,27.22 224.903,27.3 223.97,27.46 C223.036,27.62 222.196,27.914 221.45,28.34 C220.702,28.767 220.09,29.394 219.61,30.22 C219.13,31.048 218.89,32.128 218.89,33.46 C218.89,34.528 219.076,35.42 219.45,36.14 C219.822,36.86 220.33,37.474 220.97,37.98 C221.61,38.488 222.33,38.914 223.13,39.26 C223.93,39.608 224.73,39.94 225.53,40.26 L230.33,42.1 C232.356,42.9 234.196,43.727 235.85,44.58 C237.503,45.434 238.903,46.488 240.05,47.74 C241.196,48.994 242.09,50.514 242.73,52.3 C243.37,54.088 243.69,56.287 243.69,58.9 C243.69,61.62 243.196,64.1 242.21,66.34 C241.222,68.58 239.796,70.5 237.93,72.1 C236.062,73.701 233.756,74.954 231.01,75.861 C228.262,76.767 225.102,77.22 221.53,77.22 C219.77,77.22 218.196,77.166 216.81,77.06 C215.423,76.953 214.102,76.781 212.85,76.54 C211.596,76.3 210.356,75.995 209.13,75.62 C207.903,75.247 206.622,74.794 205.29,74.26 C205.45,72.714 205.742,71.1 206.17,69.42 C206.596,67.741 207.102,66.048 207.69,64.34 C209.93,65.247 212.036,65.928 214.01,66.38 C215.983,66.834 218.09,67.06 220.33,67.06 C223.69,67.06 226.33,66.434 228.25,65.18 C230.17,63.928 231.13,62.02 231.13,59.46 C231.13,58.18 230.903,57.114 230.45,56.26 C229.996,55.408 229.41,54.688 228.69,54.1 C227.97,53.514 227.156,53.02 226.25,52.62 C225.342,52.22 224.41,51.834 223.45,51.46 L218.57,49.62 Z" id="Fill-7" fill="#212529"></path>
            <path d="M263.2888,28.66 L248.9688,28.66 C248.6488,27.06 248.4888,25.38 248.4888,23.62 C248.4888,21.968 248.6488,20.34 248.9688,18.74 L289.3688,18.74 C289.6888,20.34 289.8488,21.968 289.8488,23.62 C289.8488,25.38 289.6888,27.06 289.3688,28.66 L275.0488,28.66 L275.0488,76.26 C274.0888,76.367 273.1288,76.46 272.1688,76.54 C271.2088,76.62 270.2748,76.66 269.3688,76.66 C268.4618,76.66 267.4888,76.633 266.4488,76.58 C265.4088,76.527 264.3548,76.42 263.2888,76.26 L263.2888,28.66 Z" id="Fill-9" fill="#212529"></path>
            <path d="M315.0466,18.7401 L347.6876,18.7401 C348.0066,20.3401 348.1666,21.9681 348.1666,23.6201 C348.1666,25.3801 348.0066,27.0601 347.6876,28.6601 L326.7276,28.6601 L326.7276,42.1801 L343.3666,42.1801 C343.6876,43.8871 343.8476,45.5401 343.8476,47.1401 C343.8476,48.8471 343.6876,50.5281 343.3666,52.1801 L326.7276,52.1801 L326.7276,76.2601 C324.6996,76.5801 322.7786,76.7401 320.9666,76.7401 C318.9926,76.7401 317.0196,76.5801 315.0466,76.2601 L315.0466,18.7401 Z" id="Fill-11" fill="#212529"></path>
            <path d="M356.1667,18.7401 C358.5127,18.4741 360.7127,18.2471 362.7667,18.0601 C364.8187,17.8741 367.0997,17.7801 369.6057,17.7801 C372.5387,17.7801 375.4327,18.0481 378.2867,18.5801 C381.1397,19.1141 383.7127,20.0601 386.0067,21.4201 C388.2997,22.7801 390.1527,24.6201 391.5657,26.9401 C392.9797,29.2601 393.6867,32.2071 393.6867,35.7801 C393.6867,37.9141 393.4187,39.7941 392.8867,41.4201 C392.3537,43.0481 391.6727,44.4741 390.8467,45.7001 C390.0197,46.9271 389.1267,47.9801 388.1667,48.8601 C387.2067,49.7401 386.2997,50.4481 385.4467,50.9801 L384.0867,51.8601 L398.0867,76.1801 C397.0197,76.2861 395.8987,76.3931 394.7267,76.5001 C393.5527,76.6071 392.3537,76.6601 391.1267,76.6601 C389.0997,76.6601 387.0997,76.5001 385.1267,76.1801 L370.0867,49.4601 L372.0067,48.5001 C372.7527,48.1281 373.6587,47.6481 374.7267,47.0601 C375.7927,46.4741 376.8187,45.7401 377.8067,44.8601 C378.7927,43.9801 379.6327,42.9141 380.3267,41.6601 C381.0197,40.4071 381.3667,38.9271 381.3667,37.2201 C381.3667,33.8601 380.4067,31.3941 378.4867,29.8201 C376.5657,28.2471 374.0867,27.4601 371.0467,27.4601 C369.8727,27.4601 368.8067,27.5401 367.8467,27.7001 L367.8467,76.2601 C366.8867,76.3661 365.9267,76.4601 364.9667,76.5401 C364.0067,76.6201 363.0727,76.6601 362.1667,76.6601 C361.2597,76.6601 360.2997,76.6331 359.2867,76.5801 C358.2727,76.5271 357.2327,76.4201 356.1667,76.2601 L356.1667,18.7401 Z" id="Fill-13" fill="#212529"></path>
            <path d="M404.485,18.7401 L437.126,18.7401 C437.445,20.3401 437.605,21.9681 437.605,23.6201 C437.605,25.3801 437.445,27.0601 437.126,28.6601 L416.166,28.6601 L416.166,41.1401 L432.805,41.1401 C433.126,42.8471 433.286,44.5001 433.286,46.1001 C433.286,47.8071 433.126,49.4881 432.805,51.1401 L416.166,51.1401 L416.166,66.3401 L437.685,66.3401 C438.006,67.9411 438.166,69.5681 438.166,71.2201 C438.166,72.9811 438.006,74.6601 437.685,76.2601 L404.485,76.2601 L404.485,18.7401 Z" id="Fill-15" fill="#212529"></path>
            <path d="M446.9645,18.7401 C448.9375,18.4201 450.8845,18.2601 452.8055,18.2601 C454.7255,18.2601 456.6965,18.4201 458.7255,18.7401 L458.7255,76.2601 C456.6965,76.5801 454.7515,76.7401 452.8845,76.7401 C450.9105,76.7401 448.9375,76.5801 446.9645,76.2601 L446.9645,18.7401 Z" id="Fill-17" fill="#212529"></path>
            <path d="M501.5241,46.4203 C503.4971,46.1003 505.4171,45.9403 507.2841,45.9403 C509.1501,45.9403 511.0961,46.1003 513.1241,46.4203 L513.1241,74.6603 C510.3501,75.6743 507.4571,76.3533 504.4441,76.7003 C501.4301,77.0463 498.8041,77.2203 496.5641,77.2203 C491.8701,77.2203 487.7641,76.4863 484.2441,75.0203 C480.7241,73.5543 477.7901,71.5003 475.4441,68.8603 C473.0961,66.2203 471.3371,63.0873 470.1641,59.4603 C468.9901,55.8343 468.4041,51.8873 468.4041,47.6203 C468.4041,43.3543 469.0161,39.3943 470.2441,35.7403 C471.4701,32.0873 473.2441,28.9273 475.5641,26.2603 C477.8831,23.5943 480.7361,21.5143 484.1241,20.0203 C487.5101,18.5273 491.3641,17.7803 495.6841,17.7803 C498.2441,17.7803 500.6301,17.9403 502.8431,18.2603 C505.0561,18.5803 507.3641,19.2473 509.7641,20.2603 C509.6561,21.8603 509.3361,23.4203 508.8041,24.9403 C508.2701,26.4603 507.6841,27.9943 507.0441,29.5403 C505.1761,28.9003 503.5241,28.4473 502.0841,28.1803 C500.6441,27.9143 498.9361,27.7803 496.9631,27.7803 C491.8431,27.7803 487.9101,29.4473 485.1641,32.7803 C482.4171,36.1133 481.0441,41.0603 481.0441,47.6203 C481.0441,54.1803 482.4041,59.0743 485.1241,62.3003 C487.8431,65.5273 491.8431,67.1403 497.1241,67.1403 C498.0301,67.1403 498.8431,67.0883 499.5641,66.9813 C500.2841,66.8743 500.9361,66.7683 501.5241,66.6603 L501.5241,46.4203 Z" id="Fill-19" fill="#212529"></path>
            <path d="M523.364,18.7401 C525.337,18.4201 527.284,18.2601 529.205,18.2601 C531.125,18.2601 533.096,18.4201 535.125,18.7401 L535.125,41.3001 L554.404,41.3001 L554.404,18.7401 C556.377,18.4201 558.324,18.2601 560.245,18.2601 C562.165,18.2601 564.136,18.4201 566.165,18.7401 L566.165,76.2601 C564.136,76.5801 562.19,76.7401 560.324,76.7401 C558.35,76.7401 556.377,76.5801 554.404,76.2601 L554.404,51.3801 L535.125,51.3801 L535.125,76.2601 C533.096,76.5801 531.151,76.7401 529.284,76.7401 C527.31,76.7401 525.337,76.5801 523.364,76.2601 L523.364,18.7401 Z" id="Fill-21" fill="#212529"></path>
            <g id="Group-25" transform="translate(573.000000, 17.981000)">
                <mask id="mask-2" fill="white">
                    <use xlink:href="#path-1"></use>
                </mask>
                <g id="Clip-24"></g>
                <path d="M15.5622,10.679 L1.2432,10.679 C0.9222,9.079 0.7622,7.399 0.7622,5.639 C0.7622,3.987 0.9222,2.359 1.2432,0.759 L41.6422,0.759 C41.9622,2.359 42.1232,3.987 42.1232,5.639 C42.1232,7.399 41.9622,9.079 41.6422,10.679 L27.3222,10.679 L27.3222,58.279 C26.3622,58.386 25.4022,58.479 24.4422,58.559 C23.4822,58.639 22.5482,58.679 21.6422,58.679 C20.7352,58.679 19.7622,58.652 18.7222,58.599 C17.6822,58.546 16.6282,58.439 15.5622,58.279 L15.5622,10.679 Z" id="Fill-23" fill="#212529" mask="url(#mask-2)"></path>
            </g>
            <g id="Group-28" transform="translate(0.000000, -0.019000)">
                <mask id="mask-4" fill="white">
                    <use xlink:href="#path-3"></use>
                </mask>
                <g id="Clip-27"></g>
                <path d="M35.1599,0.0194 C35.1599,0.0194 57.1339,16.8224 27.4049,43.9664 C27.4049,43.9664 2.1999,65.2944 8.6619,91.1454 C8.6619,91.1454 -14.6041,73.0494 15.1249,39.4424 C15.1249,39.4424 39.6839,14.8834 35.1599,0.0194" id="Fill-26" fill="#0C629C" mask="url(#mask-4)"></path>
            </g>
            <path d="M50.0246,14.8646 C50.0246,14.8646 71.9986,31.6686 42.2696,58.8126 C42.2696,58.8126 17.0646,80.1396 23.5266,105.9916 C23.5266,105.9916 0.2606,87.8946 29.9896,54.2886 C29.9896,54.2886 54.5486,29.7296 50.0246,14.8646" id="Fill-29" fill="#1E92D2"></path>
            <path d="M64.2429,31.6683 C64.2429,31.6683 86.2169,48.4713 56.4879,75.6153 C56.4879,75.6153 31.2829,96.9433 37.7449,122.7943 C37.7449,122.7943 14.4789,104.6983 44.2079,71.0923 C44.2079,71.0923 68.7669,46.5333 64.2429,31.6683" id="Fill-31" fill="#5ABDED"></path>
            <path d="M108.6291,117.0121 C109.0621,117.8331 109.3131,118.8021 109.3811,119.9191 C108.9251,120.1241 108.4351,120.2951 107.9111,120.4321 C107.3861,120.5691 106.8511,120.6831 106.3041,120.7741 C105.7561,120.8651 105.2151,120.9331 104.6791,120.9791 C104.1441,121.0251 103.6591,121.0471 103.2261,121.0471 C100.2391,121.0471 97.9431,120.2041 96.3361,118.5171 C94.7291,116.8301 93.9251,114.5051 93.9251,111.5411 C93.9251,109.4901 94.2101,107.5061 94.7801,105.5911 C95.3491,103.6761 96.1991,101.9841 97.3271,100.5131 C98.4561,99.0421 99.8521,97.8631 101.5161,96.9741 C103.1801,96.0841 105.1071,95.6401 107.2961,95.6401 C108.5041,95.6401 109.5351,95.7251 110.3901,95.8971 C111.2451,96.0681 111.9681,96.2791 112.5621,96.5291 C112.4471,97.0541 112.3161,97.5331 112.1681,97.9651 C112.0201,98.3991 111.7971,98.8771 111.5021,99.4021 C110.8401,99.1511 110.1901,98.9691 109.5521,98.8541 C108.9141,98.7411 108.1951,98.6831 107.3981,98.6831 C105.7111,98.6831 104.2521,99.0371 103.0211,99.7431 C101.7901,100.4501 100.7811,101.3911 99.9951,102.5651 C99.2081,103.7391 98.6271,105.0771 98.2511,106.5821 C97.8751,108.0871 97.6861,109.6381 97.6861,111.2331 C97.6861,113.4451 98.2281,115.1201 99.3111,116.2601 C100.3931,117.4001 101.9611,117.9701 104.0121,117.9701 C104.8791,117.9701 105.6821,117.8901 106.4231,117.7311 C107.1641,117.5721 107.8991,117.3311 108.6291,117.0121" id="Fill-33" fill="#A2AFBD"></path>
            <path d="M117.2805,96.016 C118.1465,95.879 118.9785,95.783 119.7775,95.725 C120.5745,95.668 121.3615,95.64 122.1365,95.64 C123.1625,95.64 124.1655,95.743 125.1455,95.948 C126.1255,96.153 126.9975,96.495 127.7615,96.974 C128.5255,97.453 129.1345,98.085 129.5915,98.871 C130.0475,99.658 130.2755,100.644 130.2755,101.829 C130.2755,103.038 130.0815,104.098 129.6935,105.009 C129.3055,105.921 128.8215,106.714 128.2405,107.386 C127.6585,108.059 127.0205,108.623 126.3255,109.079 C125.6295,109.536 124.9865,109.9 124.3935,110.173 L128.8725,120.637 C128.1895,120.705 127.5275,120.74 126.8895,120.74 C126.2285,120.74 125.6125,120.705 125.0435,120.637 L120.2895,109.181 L120.6315,109.079 C120.7685,109.056 121.0135,108.976 121.3665,108.839 C121.7195,108.703 122.1195,108.509 122.5635,108.258 C123.0085,108.007 123.4695,107.705 123.9485,107.352 C124.4275,106.998 124.8665,106.578 125.2655,106.086 C125.6635,105.597 125.9885,105.049 126.2395,104.446 C126.4905,103.841 126.6155,103.163 126.6155,102.411 C126.6155,101.043 126.2285,100.063 125.4535,99.47 C124.6775,98.877 123.6065,98.58 122.2385,98.58 C121.8745,98.58 121.5495,98.592 121.2645,98.615 C120.9795,98.638 120.6545,98.672 120.2895,98.717 L116.4255,120.637 C116.1525,120.66 115.8615,120.683 115.5535,120.705 C115.2455,120.728 114.9435,120.74 114.6475,120.74 C114.3735,120.74 114.0835,120.734 113.7755,120.723 C113.4675,120.711 113.1885,120.683 112.9375,120.637 L117.2805,96.016 Z" id="Fill-35" fill="#A2AFBD"></path>
            <path d="M137.5925,96.0502 C137.8885,96.0052 138.2135,95.9712 138.5675,95.9472 C138.9205,95.9252 139.2565,95.9132 139.5755,95.9132 C139.8945,95.9132 140.2025,95.9252 140.4995,95.9472 C140.7955,95.9712 141.0805,96.0052 141.3535,96.0502 L144.7055,111.2672 L153.4255,96.0502 C153.6755,96.0052 153.9725,95.9712 154.3145,95.9472 C154.6555,95.9252 154.9865,95.9132 155.3055,95.9132 C155.6245,95.9132 155.9435,95.9252 156.2635,95.9472 C156.5825,95.9712 156.8665,96.0052 157.1185,96.0502 L153.9725,120.6372 C153.6755,120.6832 153.3845,120.7172 153.1005,120.7392 C152.8145,120.7622 152.5245,120.7742 152.2285,120.7742 C151.9085,120.7742 151.6125,120.7622 151.3395,120.7392 C151.0655,120.7172 150.8145,120.6832 150.5865,120.6372 L153.1175,101.9322 L145.2525,115.5422 C144.7275,115.6112 144.2605,115.6452 143.8505,115.6452 C143.3935,115.6452 142.9495,115.6112 142.5165,115.5422 L139.4395,101.8632 L135.4385,120.6372 C135.1865,120.6832 134.9255,120.7172 134.6515,120.7392 C134.3785,120.7622 134.0925,120.7742 133.7965,120.7742 C133.5235,120.7742 133.2495,120.7622 132.9755,120.7392 C132.7025,120.7172 132.4405,120.6832 132.1895,120.6372 L137.5925,96.0502 Z" id="Fill-37" fill="#A2AFBD"></path>
            <g id="Group-41" transform="translate(161.000000, 94.981000)">
                <mask id="mask-6" fill="white">
                    <use xlink:href="#path-5"></use>
                </mask>
                <g id="Clip-40"></g>
                <path d="M9.591,10.8153 L6.753,10.8153 C6.753,10.3593 6.781,9.9203 6.838,9.4993 C6.895,9.0773 7.014,8.6153 7.197,8.1143 L10.035,8.1143 L10.206,7.1223 C10.594,4.8193 11.352,3.0983 12.481,1.9593 C13.609,0.8193 15.199,0.2493 17.251,0.2493 C17.843,0.2493 18.356,0.2893 18.79,0.3683 C19.222,0.4483 19.621,0.5443 19.987,0.6593 C19.85,1.2523 19.707,1.7483 19.559,2.1463 C19.41,2.5453 19.222,2.9613 18.995,3.3943 C18.744,3.3033 18.482,3.2233 18.208,3.1553 C17.935,3.0863 17.615,3.0523 17.251,3.0523 C16.772,3.0523 16.339,3.1163 15.951,3.2413 C15.564,3.3663 15.216,3.5833 14.908,3.8903 C14.601,4.1983 14.332,4.6203 14.105,5.1563 C13.877,5.6913 13.695,6.3703 13.558,7.1903 C13.512,7.3503 13.478,7.5033 13.455,7.6523 C13.432,7.8003 13.398,7.9543 13.352,8.1143 L17.559,8.1143 C17.559,8.5923 17.529,9.0373 17.473,9.4473 C17.416,9.8573 17.296,10.3143 17.114,10.8153 L12.908,10.8153 L10.275,25.7583 C10.001,27.2863 9.665,28.5743 9.266,29.6233 C8.867,30.6703 8.371,31.5203 7.779,32.1703 C7.185,32.8203 6.496,33.2873 5.71,33.5723 C4.923,33.8573 4.005,34.0003 2.957,34.0003 C2.456,34.0003 1.977,33.9603 1.521,33.8793 C1.065,33.7993 0.666,33.6923 0.324,33.5553 C0.415,33.0313 0.529,32.5573 0.666,32.1363 C0.802,31.7133 0.986,31.2983 1.213,30.8883 C1.441,30.9793 1.697,31.0533 1.982,31.1103 C2.268,31.1673 2.558,31.1963 2.854,31.1963 C3.379,31.1963 3.851,31.1273 4.274,30.9913 C4.695,30.8543 5.065,30.5803 5.385,30.1693 C5.704,29.7593 5.994,29.1833 6.257,28.4433 C6.519,27.7023 6.753,26.7383 6.958,25.5533 L9.591,10.8153 Z" id="Fill-39" fill="#A2AFBD" mask="url(#mask-6)"></path>
            </g>
            <path d="M185.8078,118.3461 C186.8788,118.3461 187.7968,118.0551 188.5608,117.4741 C189.3248,116.8931 189.9458,116.1581 190.4248,115.2681 C190.9028,114.3791 191.2568,113.4161 191.4848,112.3791 C191.7118,111.3421 191.8268,110.3671 191.8268,109.4551 C191.8268,108.1561 191.5358,107.1641 190.9538,106.4801 C190.3728,105.7961 189.5468,105.4541 188.4748,105.4541 C187.4038,105.4541 186.4918,105.7501 185.7398,106.3431 C184.9878,106.9361 184.3718,107.6771 183.8928,108.5661 C183.4138,109.4551 183.0668,110.4181 182.8498,111.4551 C182.6328,112.4931 182.5248,113.4561 182.5248,114.3451 C182.5248,115.6451 182.8038,116.6361 183.3628,117.3201 C183.9218,118.0041 184.7358,118.3461 185.8078,118.3461 M185.4658,121.0471 C183.3458,121.0471 181.7498,120.4601 180.6788,119.2861 C179.6068,118.1131 179.0718,116.4531 179.0718,114.3111 C179.0718,113.0571 179.2648,111.7411 179.6528,110.3621 C180.0398,108.9821 180.6388,107.7281 181.4478,106.6001 C182.2568,105.4711 183.2718,104.5361 184.4918,103.7951 C185.7108,103.0551 187.1528,102.6841 188.8168,102.6841 C190.9598,102.6841 192.5668,103.2781 193.6388,104.4621 C194.7098,105.6481 195.2458,107.3131 195.2458,109.4551 C195.2458,110.7321 195.0518,112.0541 194.6648,113.4221 C194.2768,114.7891 193.6838,116.0371 192.8868,117.1661 C192.0878,118.2941 191.0748,119.2241 189.8428,119.9531 C188.6118,120.6831 187.1528,121.0471 185.4658,121.0471" id="Fill-42" fill="#A2AFBD"></path>
            <path d="M197.8449,120.6371 C198.0949,119.2001 198.3749,117.6851 198.6819,116.0891 C198.9909,114.4931 199.2749,112.9491 199.5369,111.4551 C199.7989,109.9621 200.0219,108.5951 200.2039,107.3521 C200.3869,106.1101 200.4779,105.1241 200.4779,104.3941 C200.4779,104.0981 200.4719,103.8641 200.4609,103.6931 C200.4489,103.5221 200.4209,103.3121 200.3749,103.0611 C200.6259,103.0151 200.8999,102.9871 201.1959,102.9751 C201.4919,102.9631 201.7649,102.9571 202.0169,102.9571 C202.2439,102.9571 202.5009,102.9631 202.7859,102.9751 C203.0709,102.9871 203.3269,103.0151 203.5549,103.0611 C203.6009,103.2431 203.6349,103.4431 203.6579,103.6581 C203.6799,103.8751 203.6919,104.1781 203.6919,104.5651 C203.6919,105.0901 203.6579,105.6031 203.5899,106.1041 C203.8859,105.6941 204.2109,105.3061 204.5639,104.9411 C204.9169,104.5761 205.3109,104.2461 205.7439,103.9501 C206.1769,103.6541 206.6559,103.4191 207.1799,103.2481 C207.7039,103.0771 208.2859,102.9911 208.9239,102.9911 C209.1069,102.9911 209.3059,103.0041 209.5229,103.0271 C209.7389,103.0491 209.9159,103.0831 210.0529,103.1291 C210.0529,103.5851 210.0009,104.1041 209.8989,104.6851 C209.7959,105.2661 209.6189,105.7621 209.3689,106.1721 C209.2779,106.1501 209.1349,106.1271 208.9409,106.1041 C208.7469,106.0811 208.5589,106.0701 208.3769,106.0701 C206.8489,106.0701 205.6129,106.6161 204.6669,107.7111 C203.7199,108.8051 203.0429,110.4921 202.6319,112.7721 L201.2299,120.6371 C200.7509,120.7051 200.2839,120.7401 199.8279,120.7401 L198.9729,120.7401 L197.8449,120.6371 Z" id="Fill-44" fill="#A2AFBD"></path>
            <path d="M225.9528,99.0941 L219.8658,99.0941 C219.8658,98.5921 219.9108,98.0911 220.0028,97.5891 C220.0938,97.0881 220.2308,96.5741 220.4128,96.0501 L236.1088,96.0501 C236.1088,96.5741 236.0628,97.0821 235.9728,97.5721 C235.8808,98.0631 235.7448,98.5701 235.5618,99.0941 L229.4748,99.0941 L225.7138,120.6371 C225.1198,120.7051 224.5168,120.7401 223.9008,120.7401 C223.6048,120.7401 223.3078,120.7341 223.0118,120.7231 C222.7158,120.7111 222.4418,120.6831 222.1918,120.6371 L225.9528,99.0941 Z" id="Fill-46" fill="#A2AFBD"></path>
            <path d="M235.6305,120.6371 C235.8805,119.2001 236.1605,117.6851 236.4675,116.0891 C236.7765,114.4931 237.0605,112.9491 237.3225,111.4551 C237.5845,109.9621 237.8075,108.5951 237.9895,107.3521 C238.1725,106.1101 238.2635,105.1241 238.2635,104.3941 C238.2635,104.0981 238.2575,103.8641 238.2465,103.6931 C238.2345,103.5221 238.2065,103.3121 238.1605,103.0611 C238.4115,103.0151 238.6855,102.9871 238.9815,102.9751 C239.2775,102.9631 239.5505,102.9571 239.8025,102.9571 C240.0295,102.9571 240.2865,102.9631 240.5715,102.9751 C240.8565,102.9871 241.1125,103.0151 241.3405,103.0611 C241.3865,103.2431 241.4205,103.4431 241.4435,103.6581 C241.4655,103.8751 241.4775,104.1781 241.4775,104.5651 C241.4775,105.0901 241.4435,105.6031 241.3755,106.1041 C241.6715,105.6941 241.9965,105.3061 242.3495,104.9411 C242.7025,104.5761 243.0965,104.2461 243.5295,103.9501 C243.9625,103.6541 244.4415,103.4191 244.9655,103.2481 C245.4895,103.0771 246.0715,102.9911 246.7095,102.9911 C246.8925,102.9911 247.0915,103.0041 247.3085,103.0271 C247.5245,103.0491 247.7015,103.0831 247.8385,103.1291 C247.8385,103.5851 247.7865,104.1041 247.6845,104.6851 C247.5815,105.2661 247.4045,105.7621 247.1545,106.1721 C247.0635,106.1501 246.9205,106.1271 246.7265,106.1041 C246.5325,106.0811 246.3445,106.0701 246.1625,106.0701 C244.6345,106.0701 243.3985,106.6161 242.4525,107.7111 C241.5055,108.8051 240.8285,110.4921 240.4175,112.7721 L239.0155,120.6371 C238.5365,120.7051 238.0695,120.7401 237.6135,120.7401 L236.7585,120.7401 L235.6305,120.6371 Z" id="Fill-48" fill="#A2AFBD"></path>
            <path d="M260.3879,105.6937 C260.1149,105.6257 259.8289,105.5797 259.5329,105.5567 C259.2369,105.5347 258.9059,105.5227 258.5409,105.5227 C257.4009,105.5227 256.3809,105.7847 255.4809,106.3087 C254.5799,106.8337 253.8049,107.5347 253.1559,108.4127 C252.5059,109.2907 252.0099,110.2817 251.6679,111.3867 C251.3259,112.4937 251.1549,113.6277 251.1549,114.7897 C251.1549,115.8837 251.3479,116.7337 251.7369,117.3377 C252.1239,117.9417 252.7049,118.2437 253.4799,118.2437 C254.1869,118.2437 254.8709,118.0157 255.5319,117.5597 C256.1929,117.1037 256.7979,116.4707 257.3449,115.6617 C257.8919,114.8527 258.3649,113.9067 258.7629,112.8237 C259.1619,111.7407 259.4759,110.5837 259.7039,109.3527 L260.3879,105.6937 Z M262.3369,113.1817 C262.0859,114.5497 261.8869,115.7247 261.7389,116.7047 C261.5899,117.6847 261.5159,118.5407 261.5159,119.2687 C261.5159,119.5657 261.5219,119.7987 261.5339,119.9697 C261.5449,120.1407 261.5729,120.3517 261.6189,120.6027 C261.3679,120.6477 261.0949,120.6827 260.7979,120.7057 C260.5019,120.7277 260.2279,120.7397 259.9779,120.7397 C259.7489,120.7397 259.4989,120.7277 259.2249,120.7057 C258.9519,120.6827 258.6889,120.6477 258.4389,120.6027 C258.3929,120.3517 258.3589,120.0957 258.3359,119.8337 C258.3129,119.5717 258.3019,119.2467 258.3019,118.8587 C258.3019,118.6087 258.3299,118.2657 258.3879,117.8337 C258.4439,117.3997 258.5069,117.0117 258.5759,116.6707 C258.3249,117.1727 257.9939,117.6787 257.5839,118.1917 C257.1739,118.7057 256.6999,119.1727 256.1649,119.5937 C255.6289,120.0157 255.0249,120.3637 254.3519,120.6367 C253.6799,120.9107 252.9559,121.0477 252.1809,121.0477 C250.6769,121.0477 249.5419,120.5507 248.7789,119.5597 C248.0139,118.5687 247.6329,117.2167 247.6329,115.5077 C247.6329,113.8887 247.8839,112.3097 248.3849,110.7717 C248.8869,109.2327 249.6279,107.8647 250.6079,106.6687 C251.5879,105.4707 252.8079,104.5077 254.2669,103.7787 C255.7249,103.0487 257.4239,102.6837 259.3619,102.6837 C260.1829,102.6837 261.0089,102.7477 261.8409,102.8727 C262.6729,102.9987 263.4089,103.1747 264.0469,103.4027 L262.3369,113.1817 Z" id="Fill-50" fill="#A2AFBD"></path>
            <path d="M268.6286,110.4808 C268.8786,109.1128 269.0786,107.9388 269.2266,106.9588 C269.3746,105.9788 269.4486,105.1248 269.4486,104.3938 C269.4486,104.0978 269.4426,103.8638 269.4316,103.6928 C269.4206,103.5218 269.3916,103.3118 269.3466,103.0608 C269.5976,103.0148 269.8706,102.9808 270.1676,102.9578 C270.4626,102.9348 270.7366,102.9228 270.9876,102.9228 C271.2156,102.9228 271.4716,102.9348 271.7576,102.9578 C272.0426,102.9808 272.2986,103.0148 272.5266,103.0608 C272.5716,103.2438 272.6066,103.4538 272.6296,103.6928 C272.6516,103.9318 272.6636,104.2468 272.6636,104.6328 C272.6636,105.0668 272.6346,105.4768 272.5776,105.8648 C272.5206,106.2518 272.4586,106.6278 272.3896,106.9928 C272.6176,106.5138 272.9376,106.0178 273.3476,105.5048 C273.7576,104.9928 274.2366,104.5308 274.7836,104.1208 C275.3306,103.7098 275.9406,103.3688 276.6126,103.0948 C277.2856,102.8208 277.9986,102.6838 278.7506,102.6838 C280.1186,102.6838 281.1836,103.0488 281.9476,103.7788 C282.7116,104.5078 283.0936,105.6368 283.0936,107.1648 C283.0936,107.5058 283.0706,107.8878 283.0246,108.3098 C282.9786,108.7318 282.9216,109.1358 282.8536,109.5238 L280.9046,120.6368 C280.6306,120.6828 280.3346,120.7168 280.0156,120.7398 C279.6956,120.7618 279.4116,120.7738 279.1606,120.7738 C278.9096,120.7738 278.6306,120.7618 278.3226,120.7398 C278.0156,120.7168 277.7466,120.6828 277.5196,120.6368 L279.3656,110.1048 C279.4346,109.7408 279.4856,109.3868 279.5196,109.0438 C279.5536,108.7028 279.5706,108.4068 279.5706,108.1558 C279.5706,107.2448 279.3596,106.5938 278.9386,106.2068 C278.5166,105.8188 277.9526,105.6258 277.2456,105.6258 C276.6296,105.6258 276.0256,105.8128 275.4336,106.1898 C274.8406,106.5658 274.2816,107.1188 273.7576,107.8478 C273.2326,108.5778 272.7606,109.4778 272.3386,110.5488 C271.9166,111.6218 271.5806,112.8518 271.3296,114.2428 L270.2016,120.6368 C269.9276,120.6828 269.6316,120.7168 269.3126,120.7398 C268.9926,120.7618 268.7086,120.7738 268.4576,120.7738 C268.2066,120.7738 267.9276,120.7618 267.6196,120.7398 C267.3116,120.7168 267.0436,120.6828 266.8166,120.6368 L268.6286,110.4808 Z" id="Fill-52" fill="#A2AFBD"></path>
            <path d="M290.7531,112.3959 C290.4111,112.2589 290.0461,112.0879 289.6591,111.8829 C289.2711,111.6779 288.9181,111.4169 288.5991,111.0959 C288.2791,110.7779 288.0111,110.3739 287.7951,109.8819 C287.5781,109.3929 287.4701,108.8049 287.4701,108.1219 C287.4701,107.2789 287.6411,106.5199 287.9831,105.8469 C288.3251,105.1749 288.8041,104.6049 289.4201,104.1379 C290.0351,103.6699 290.7701,103.3119 291.6251,103.0609 C292.4801,102.8099 293.4321,102.6839 294.4811,102.6839 C295.4151,102.6839 296.3041,102.7869 297.1481,102.9919 C297.9911,103.1979 298.6521,103.4249 299.1311,103.6759 C298.9481,104.5649 298.6181,105.4199 298.1391,106.2409 C297.7521,106.0579 297.2161,105.8709 296.5321,105.6759 C295.8481,105.4829 295.1181,105.3859 294.3441,105.3859 C293.3631,105.3859 292.5481,105.5569 291.8991,105.8989 C291.2491,106.2409 290.9241,106.8339 290.9241,107.6769 C290.9241,108.2019 291.0781,108.6399 291.3861,108.9939 C291.6931,109.3469 292.2461,109.6829 293.0441,110.0019 L293.7961,110.3439 C294.2291,110.5489 294.6801,110.7659 295.1471,110.9939 C295.6141,111.2219 296.0361,111.5009 296.4131,111.8319 C296.7891,112.1629 297.0961,112.5619 297.3361,113.0289 C297.5751,113.4969 297.6951,114.0719 297.6951,114.7549 C297.6951,115.8499 297.4901,116.7909 297.0791,117.5769 C296.6691,118.3629 296.1051,119.0129 295.3871,119.5259 C294.6691,120.0389 293.8361,120.4199 292.8901,120.6709 C291.9441,120.9219 290.9241,121.0469 289.8301,121.0469 C288.9181,121.0469 288.0231,120.9669 287.1461,120.8079 C286.2681,120.6479 285.5441,120.4439 284.9741,120.1929 C285.0191,119.6919 285.1051,119.2119 285.2311,118.7559 C285.3561,118.2999 285.5441,117.8679 285.7951,117.4569 C286.3871,117.7079 287.0821,117.9079 287.8801,118.0549 C288.6781,118.2039 289.4201,118.2779 290.1031,118.2779 C290.6731,118.2779 291.2091,118.2259 291.7111,118.1239 C292.2111,118.0209 292.6451,117.8619 293.0101,117.6449 C293.3751,117.4279 293.6651,117.1379 293.8821,116.7729 C294.0981,116.4089 294.2071,115.9529 294.2071,115.4049 C294.2071,114.6989 294.0021,114.1679 293.5911,113.8149 C293.1811,113.4619 292.6001,113.1369 291.8471,112.8399 L290.7531,112.3959 Z" id="Fill-54" fill="#A2AFBD"></path>
            <path d="M304.9099,117.9701 C305.1609,118.0611 305.4689,118.1231 305.8329,118.1571 C306.1979,118.1921 306.5399,118.2091 306.8589,118.2091 C307.9079,118.2091 308.8819,117.9921 309.7829,117.5601 C310.6829,117.1261 311.4589,116.5291 312.1079,115.7641 C312.7589,115.0001 313.2699,114.0941 313.6469,113.0451 C314.0229,111.9971 314.2119,110.8571 314.2119,109.6261 C314.2119,108.3951 313.9489,107.4201 313.4249,106.7021 C312.8999,105.9841 312.1469,105.6251 311.1679,105.6251 C310.5749,105.6251 310.0049,105.7501 309.4579,106.0011 C308.9109,106.2521 308.4039,106.6511 307.9359,107.1991 C307.4689,107.7451 307.0529,108.4581 306.6879,109.3351 C306.3239,110.2131 306.0379,111.2901 305.8329,112.5671 L304.9099,117.9701 Z M302.8579,110.4811 C303.1089,109.1131 303.3079,107.9391 303.4569,106.9581 C303.6049,105.9791 303.6789,105.1241 303.6789,104.3941 C303.6789,104.0981 303.6729,103.8641 303.6619,103.6931 C303.6499,103.5221 303.6329,103.3121 303.6109,103.0611 C303.8609,103.0151 304.1289,102.9811 304.4139,102.9571 C304.6989,102.9351 304.9669,102.9231 305.2179,102.9231 C305.4459,102.9231 305.7019,102.9351 305.9869,102.9571 C306.2719,102.9811 306.5399,103.0151 306.7909,103.0611 C306.8359,103.2431 306.8699,103.4431 306.8929,103.6581 C306.9159,103.8751 306.9279,104.1781 306.9279,104.5651 C306.9279,104.8381 306.9159,105.0841 306.8929,105.3001 C306.8699,105.5171 306.8359,105.7621 306.7909,106.0351 C307.4069,105.0771 308.2039,104.2811 309.1849,103.6421 C310.1639,103.0041 311.3499,102.6841 312.7409,102.6841 C314.3129,102.6841 315.5559,103.2381 316.4689,104.3431 C317.3799,105.4491 317.8369,107.0041 317.8369,109.0101 C317.8369,110.6291 317.5909,112.1621 317.0999,113.6101 C316.6099,115.0581 315.8759,116.3341 314.8949,117.4401 C313.9149,118.5461 312.6949,119.4231 311.2359,120.0731 C309.7769,120.7231 308.0779,121.0471 306.1409,121.0471 C305.7759,121.0471 305.4519,121.0351 305.1669,121.0131 C304.8809,120.9911 304.6139,120.9561 304.3629,120.9101 L303.0299,128.7071 C302.7559,128.7521 302.4589,128.7861 302.1399,128.8101 C301.8209,128.8321 301.5469,128.8441 301.3199,128.8441 C301.0689,128.8441 300.7889,128.8321 300.4819,128.8101 C300.1739,128.7861 299.8839,128.7521 299.6099,128.7071 L302.8579,110.4811 Z" id="Fill-56" fill="#A2AFBD"></path>
            <path d="M327.5817,118.3461 C328.6527,118.3461 329.5697,118.0551 330.3347,117.4741 C331.0977,116.8931 331.7197,116.1581 332.1977,115.2681 C332.6767,114.3791 333.0297,113.4161 333.2577,112.3791 C333.4857,111.3421 333.6007,110.3671 333.6007,109.4551 C333.6007,108.1561 333.3097,107.1641 332.7277,106.4801 C332.1457,105.7961 331.3197,105.4541 330.2487,105.4541 C329.1767,105.4541 328.2657,105.7501 327.5137,106.3431 C326.7607,106.9361 326.1447,107.6771 325.6667,108.5661 C325.1877,109.4551 324.8397,110.4181 324.6237,111.4551 C324.4067,112.4931 324.2987,113.4561 324.2987,114.3451 C324.2987,115.6451 324.5777,116.6361 325.1367,117.3201 C325.6947,118.0041 326.5097,118.3461 327.5817,118.3461 M327.2397,121.0471 C325.1197,121.0471 323.5227,120.4601 322.4517,119.2861 C321.3807,118.1131 320.8447,116.4531 320.8447,114.3111 C320.8447,113.0571 321.0387,111.7411 321.4267,110.3621 C321.8127,108.9821 322.4117,107.7281 323.2217,106.6001 C324.0297,105.4711 325.0447,104.5361 326.2657,103.7951 C327.4837,103.0551 328.9267,102.6841 330.5907,102.6841 C332.7327,102.6841 334.3407,103.2781 335.4117,104.4621 C336.4827,105.6481 337.0197,107.3131 337.0197,109.4551 C337.0197,110.7321 336.8257,112.0541 336.4377,113.4221 C336.0507,114.7891 335.4577,116.0371 334.6597,117.1661 C333.8617,118.2941 332.8477,119.2241 331.6167,119.9531 C330.3857,120.6831 328.9267,121.0471 327.2397,121.0471" id="Fill-58" fill="#A2AFBD"></path>
            <path d="M339.6179,120.6371 C339.8689,119.2001 340.1479,117.6851 340.4559,116.0891 C340.7639,114.4931 341.0489,112.9491 341.3109,111.4551 C341.5729,109.9621 341.7949,108.5951 341.9769,107.3521 C342.1599,106.1101 342.2519,105.1241 342.2519,104.3941 C342.2519,104.0981 342.2459,103.8641 342.2339,103.6931 C342.2219,103.5221 342.1939,103.3121 342.1489,103.0611 C342.3989,103.0151 342.6729,102.9871 342.9699,102.9751 C343.2649,102.9631 343.5389,102.9571 343.7899,102.9571 C344.0169,102.9571 344.2739,102.9631 344.5589,102.9751 C344.8449,102.9871 345.0999,103.0151 345.3289,103.0611 C345.3749,103.2431 345.4089,103.4431 345.4309,103.6581 C345.4539,103.8751 345.4659,104.1781 345.4659,104.5651 C345.4659,105.0901 345.4309,105.6031 345.3629,106.1041 C345.6589,105.6941 345.9839,105.3061 346.3379,104.9411 C346.6909,104.5761 347.0839,104.2461 347.5169,103.9501 C347.9499,103.6541 348.4299,103.4191 348.9539,103.2481 C349.4779,103.0771 350.0589,102.9911 350.6979,102.9911 C350.8799,102.9911 351.0789,103.0041 351.2959,103.0271 C351.5129,103.0491 351.6889,103.0831 351.8259,103.1291 C351.8259,103.5851 351.7749,104.1041 351.6729,104.6851 C351.5699,105.2661 351.3919,105.7621 351.1419,106.1721 C351.0509,106.1501 350.9079,106.1271 350.7149,106.1041 C350.5209,106.0811 350.3329,106.0701 350.1499,106.0701 C348.6229,106.0701 347.3869,106.6161 346.4399,107.7111 C345.4939,108.8051 344.8159,110.4921 344.4059,112.7721 L343.0039,120.6371 C342.5249,120.7051 342.0569,120.7401 341.6009,120.7401 L340.7469,120.7401 L339.6179,120.6371 Z" id="Fill-60" fill="#A2AFBD"></path>
            <path d="M355.1774,105.7963 L352.4064,105.7963 C352.4064,105.3403 352.4424,104.9013 352.5104,104.4803 C352.5784,104.0583 352.7034,103.5963 352.8864,103.0953 L355.6214,103.0953 C355.7364,102.5023 355.8384,101.8983 355.9294,101.2823 C356.0204,100.6663 356.0664,100.0283 356.0664,99.3673 L356.0664,98.8193 C356.5224,98.5923 357.0694,98.4213 357.7074,98.3073 C358.3454,98.1933 358.8934,98.1363 359.3494,98.1363 C359.3714,98.3413 359.3884,98.5463 359.4004,98.7513 C359.4114,98.9573 359.4174,99.1743 359.4174,99.4013 C359.4174,100.1093 359.3254,100.9863 359.1444,102.0343 L358.9394,103.0953 L363.3504,103.0953 C363.3504,103.5963 363.3164,104.0583 363.2474,104.4803 C363.1794,104.9013 363.0654,105.3403 362.9064,105.7963 L358.5284,105.7963 L357.1954,113.2163 C357.0804,113.7413 356.9784,114.2823 356.8874,114.8413 C356.7954,115.4003 356.7504,115.9063 356.7504,116.3623 C356.7504,117.0463 356.9264,117.5203 357.2804,117.7813 C357.6334,118.0443 358.1064,118.1753 358.6994,118.1753 C359.0864,118.1753 359.4404,118.1473 359.7594,118.0893 C360.0784,118.0323 360.3974,117.9583 360.7164,117.8673 C360.7854,118.0953 360.8424,118.3463 360.8884,118.6193 C360.9334,118.8933 360.9564,119.1903 360.9564,119.5083 L360.9564,120.0043 C360.9564,120.1753 360.9454,120.3523 360.9224,120.5343 C360.6254,120.6263 360.2384,120.7113 359.7594,120.7913 C359.2814,120.8703 358.7684,120.9103 358.2204,120.9103 C357.4904,120.9103 356.8234,120.8593 356.2204,120.7573 C355.6154,120.6543 355.0974,120.4603 354.6644,120.1753 C354.2314,119.8913 353.8954,119.5033 353.6564,119.0133 C353.4154,118.5233 353.2964,117.8793 353.2964,117.0803 C353.2964,116.6483 353.3354,116.1863 353.4154,115.6953 C353.4954,115.2053 353.5814,114.6983 353.6724,114.1743 L355.1774,105.7963 Z" id="Fill-62" fill="#A2AFBD"></path>
            <path d="M376.7888,105.6937 C376.5148,105.6257 376.2288,105.5797 375.9338,105.5567 C375.6368,105.5347 375.3068,105.5227 374.9418,105.5227 C373.8018,105.5227 372.7818,105.7847 371.8818,106.3087 C370.9798,106.8337 370.2058,107.5347 369.5568,108.4127 C368.9058,109.2907 368.4098,110.2817 368.0678,111.3867 C367.7258,112.4937 367.5558,113.6277 367.5558,114.7897 C367.5558,115.8837 367.7488,116.7337 368.1368,117.3377 C368.5238,117.9417 369.1048,118.2437 369.8808,118.2437 C370.5868,118.2437 371.2708,118.0157 371.9328,117.5597 C372.5938,117.1037 373.1978,116.4707 373.7448,115.6617 C374.2918,114.8527 374.7658,113.9067 375.1638,112.8237 C375.5618,111.7407 375.8768,110.5837 376.1038,109.3527 L376.7888,105.6937 Z M378.7368,113.1817 C378.4858,114.5497 378.2868,115.7247 378.1398,116.7047 C377.9908,117.6847 377.9168,118.5407 377.9168,119.2687 C377.9168,119.5657 377.9228,119.7987 377.9348,119.9697 C377.9448,120.1407 377.9738,120.3517 378.0188,120.6027 C377.7678,120.6477 377.4948,120.6827 377.1988,120.7057 C376.9018,120.7277 376.6288,120.7397 376.3778,120.7397 C376.1498,120.7397 375.8988,120.7277 375.6258,120.7057 C375.3518,120.6827 375.0898,120.6477 374.8398,120.6027 C374.7938,120.3517 374.7588,120.0957 374.7368,119.8337 C374.7138,119.5717 374.7018,119.2467 374.7018,118.8587 C374.7018,118.6087 374.7298,118.2657 374.7878,117.8337 C374.8448,117.3997 374.9078,117.0117 374.9768,116.6707 C374.7248,117.1727 374.3938,117.6787 373.9838,118.1917 C373.5738,118.7057 373.1008,119.1727 372.5648,119.5937 C372.0288,120.0157 371.4248,120.3637 370.7528,120.6367 C370.0798,120.9107 369.3558,121.0477 368.5818,121.0477 C367.0768,121.0477 365.9418,120.5507 365.1788,119.5597 C364.4148,118.5687 364.0328,117.2167 364.0328,115.5077 C364.0328,113.8887 364.2838,112.3097 364.7858,110.7717 C365.2868,109.2327 366.0278,107.8647 367.0088,106.6687 C367.9878,105.4707 369.2078,104.5077 370.6678,103.7787 C372.1258,103.0487 373.8248,102.6837 375.7628,102.6837 C376.5828,102.6837 377.4088,102.7477 378.2418,102.8727 C379.0738,102.9987 379.8088,103.1747 380.4468,103.4027 L378.7368,113.1817 Z" id="Fill-64" fill="#A2AFBD"></path>
            <path d="M386.0212,105.7963 L383.2502,105.7963 C383.2502,105.3403 383.2862,104.9013 383.3542,104.4803 C383.4222,104.0583 383.5472,103.5963 383.7302,103.0953 L386.4652,103.0953 C386.5802,102.5023 386.6822,101.8983 386.7732,101.2823 C386.8642,100.6663 386.9102,100.0283 386.9102,99.3673 L386.9102,98.8193 C387.3662,98.5923 387.9132,98.4213 388.5512,98.3073 C389.1892,98.1933 389.7372,98.1363 390.1932,98.1363 C390.2152,98.3413 390.2322,98.5463 390.2442,98.7513 C390.2552,98.9573 390.2612,99.1743 390.2612,99.4013 C390.2612,100.1093 390.1692,100.9863 389.9882,102.0343 L389.7832,103.0953 L394.1942,103.0953 C394.1942,103.5963 394.1602,104.0583 394.0912,104.4803 C394.0232,104.9013 393.9092,105.3403 393.7502,105.7963 L389.3722,105.7963 L388.0392,113.2163 C387.9242,113.7413 387.8222,114.2823 387.7312,114.8413 C387.6392,115.4003 387.5942,115.9063 387.5942,116.3623 C387.5942,117.0463 387.7702,117.5203 388.1242,117.7813 C388.4772,118.0443 388.9502,118.1753 389.5432,118.1753 C389.9302,118.1753 390.2842,118.1473 390.6032,118.0893 C390.9222,118.0323 391.2412,117.9583 391.5602,117.8673 C391.6292,118.0953 391.6862,118.3463 391.7322,118.6193 C391.7772,118.8933 391.8002,119.1903 391.8002,119.5083 L391.8002,120.0043 C391.8002,120.1753 391.7892,120.3523 391.7662,120.5343 C391.4692,120.6263 391.0822,120.7113 390.6032,120.7913 C390.1252,120.8703 389.6122,120.9103 389.0642,120.9103 C388.3342,120.9103 387.6672,120.8593 387.0642,120.7573 C386.4592,120.6543 385.9412,120.4603 385.5082,120.1753 C385.0752,119.8913 384.7392,119.5033 384.5002,119.0133 C384.2592,118.5233 384.1402,117.8793 384.1402,117.0803 C384.1402,116.6483 384.1792,116.1863 384.2592,115.6953 C384.3392,115.2053 384.4252,114.6983 384.5162,114.1743 L386.0212,105.7963 Z" id="Fill-66" fill="#A2AFBD"></path>
            <path d="M398.2624,99.4701 C398.2624,98.8091 398.3194,98.1821 398.4334,97.5891 C398.5474,96.9961 398.6954,96.3921 398.8774,95.7771 C399.1974,95.7321 399.5384,95.6971 399.9044,95.6741 C400.2684,95.6521 400.5874,95.6401 400.8614,95.6401 C401.1344,95.6401 401.4484,95.6521 401.8014,95.6741 C402.1554,95.6971 402.4794,95.7321 402.7764,95.7771 C402.7534,96.4381 402.6854,97.0711 402.5714,97.6741 C402.4564,98.2791 402.3084,98.8771 402.1264,99.4701 C401.8074,99.5161 401.4644,99.5441 401.1004,99.5551 C400.7364,99.5671 400.4164,99.5731 400.1434,99.5731 C399.8924,99.5731 399.5844,99.5671 399.2194,99.5551 C398.8554,99.5441 398.5354,99.5161 398.2624,99.4701 L398.2624,99.4701 Z M398.2964,105.7961 L396.1764,105.7961 C396.1764,105.3401 396.2044,104.8961 396.2614,104.4621 C396.3184,104.0301 396.4384,103.5741 396.6204,103.0951 L402.0924,103.0951 L399.0144,120.6371 C398.7634,120.6831 398.4734,120.7111 398.1424,120.7231 C397.8124,120.7341 397.5214,120.7401 397.2704,120.7401 C397.0194,120.7401 396.7574,120.7341 396.4844,120.7231 C396.2104,120.7111 395.9484,120.6831 395.6984,120.6371 L398.2964,105.7961 Z" id="Fill-68" fill="#A2AFBD"></path>
            <path d="M411.6677,118.3461 C412.7387,118.3461 413.6557,118.0551 414.4207,117.4741 C415.1837,116.8931 415.8057,116.1581 416.2837,115.2681 C416.7627,114.3791 417.1157,113.4161 417.3437,112.3791 C417.5717,111.3421 417.6867,110.3671 417.6867,109.4551 C417.6867,108.1561 417.3957,107.1641 416.8137,106.4801 C416.2317,105.7961 415.4057,105.4541 414.3347,105.4541 C413.2627,105.4541 412.3517,105.7501 411.5997,106.3431 C410.8467,106.9361 410.2307,107.6771 409.7527,108.5661 C409.2737,109.4551 408.9257,110.4181 408.7097,111.4551 C408.4927,112.4931 408.3847,113.4561 408.3847,114.3451 C408.3847,115.6451 408.6637,116.6361 409.2227,117.3201 C409.7807,118.0041 410.5957,118.3461 411.6677,118.3461 M411.3257,121.0471 C409.2057,121.0471 407.6087,120.4601 406.5377,119.2861 C405.4667,118.1131 404.9307,116.4531 404.9307,114.3111 C404.9307,113.0571 405.1247,111.7411 405.5127,110.3621 C405.8987,108.9821 406.4977,107.7281 407.3077,106.6001 C408.1157,105.4711 409.1307,104.5361 410.3517,103.7951 C411.5697,103.0551 413.0127,102.6841 414.6767,102.6841 C416.8187,102.6841 418.4267,103.2781 419.4977,104.4621 C420.5687,105.6481 421.1057,107.3131 421.1057,109.4551 C421.1057,110.7321 420.9117,112.0541 420.5237,113.4221 C420.1367,114.7891 419.5437,116.0371 418.7457,117.1661 C417.9477,118.2941 416.9337,119.2241 415.7027,119.9531 C414.4717,120.6831 413.0127,121.0471 411.3257,121.0471" id="Fill-70" fill="#A2AFBD"></path>
            <path d="M425.7897,110.4808 C426.0407,109.1128 426.2397,107.9388 426.3887,106.9588 C426.5367,105.9788 426.6107,105.1248 426.6107,104.3938 C426.6107,104.0978 426.6047,103.8638 426.5937,103.6928 C426.5817,103.5218 426.5537,103.3118 426.5087,103.0608 C426.7587,103.0148 427.0317,102.9808 427.3287,102.9578 C427.6247,102.9348 427.8977,102.9228 428.1487,102.9228 C428.3777,102.9228 428.6337,102.9348 428.9187,102.9578 C429.2037,102.9808 429.4607,103.0148 429.6877,103.0608 C429.7337,103.2438 429.7687,103.4538 429.7907,103.6928 C429.8127,103.9318 429.8247,104.2468 429.8247,104.6328 C429.8247,105.0668 429.7967,105.4768 429.7397,105.8648 C429.6827,106.2518 429.6197,106.6278 429.5517,106.9928 C429.7787,106.5138 430.0987,106.0178 430.5097,105.5048 C430.9197,104.9928 431.3977,104.5308 431.9447,104.1208 C432.4927,103.7098 433.1017,103.3688 433.7747,103.0948 C434.4467,102.8208 435.1597,102.6838 435.9117,102.6838 C437.2797,102.6838 438.3457,103.0488 439.1087,103.7788 C439.8727,104.5078 440.2547,105.6368 440.2547,107.1648 C440.2547,107.5058 440.2317,107.8878 440.1857,108.3098 C440.1407,108.7318 440.0837,109.1358 440.0157,109.5238 L438.0657,120.6368 C437.7927,120.6828 437.4957,120.7168 437.1777,120.7398 C436.8577,120.7618 436.5727,120.7738 436.3217,120.7738 C436.0707,120.7738 435.7927,120.7618 435.4847,120.7398 C435.1767,120.7168 434.9087,120.6828 434.6817,120.6368 L436.5277,110.1048 C436.5967,109.7408 436.6467,109.3868 436.6817,109.0438 C436.7157,108.7028 436.7327,108.4068 436.7327,108.1558 C436.7327,107.2448 436.5217,106.5938 436.1007,106.2068 C435.6787,105.8188 435.1137,105.6258 434.4067,105.6258 C433.7917,105.6258 433.1867,105.8128 432.5957,106.1898 C432.0017,106.5658 431.4437,107.1188 430.9197,107.8478 C430.3947,108.5778 429.9217,109.4778 429.5007,110.5488 C429.0777,111.6218 428.7417,112.8518 428.4917,114.2428 L427.3627,120.6368 C427.0897,120.6828 426.7927,120.7168 426.4747,120.7398 C426.1537,120.7618 425.8697,120.7738 425.6187,120.7738 C425.3677,120.7738 425.0897,120.7618 424.7807,120.7398 C424.4737,120.7168 424.2057,120.6828 423.9777,120.6368 L425.7897,110.4808 Z" id="Fill-72" fill="#A2AFBD"></path>
            <path d="M467.5759,107.6771 L461.7629,107.6771 C459.7119,107.6771 458.1039,108.2471 456.9409,109.3871 C455.7789,110.5271 455.1969,112.0421 455.1969,113.9351 C455.1969,115.1891 455.5789,116.1861 456.3429,116.9271 C457.1059,117.6681 458.3089,118.0381 459.9509,118.0381 C461.1809,118.0381 462.2019,117.8731 463.0119,117.5421 C463.8199,117.2121 464.4929,116.7501 465.0289,116.1571 C465.5639,115.5651 465.9739,114.8641 466.2599,114.0541 C466.5449,113.2451 466.7659,112.3731 466.9269,111.4391 L467.5759,107.6771 Z M468.0899,104.9061 C468.2029,104.3151 468.3049,103.7101 468.3969,103.0951 C468.4879,102.4791 468.5339,101.8411 468.5339,101.1801 L468.5339,100.6321 C468.9889,100.4051 469.5369,100.2341 470.1759,100.1191 C470.8129,100.0061 471.3599,99.9481 471.8159,99.9481 C471.8389,100.1541 471.8559,100.3591 471.8679,100.5641 C471.8789,100.7691 471.8849,100.9871 471.8849,101.2141 C471.8849,101.9201 471.7939,102.7981 471.6109,103.8471 L471.4059,104.9061 L474.8939,104.9061 C474.8479,105.4081 474.7859,105.8761 474.7059,106.3091 C474.6259,106.7421 474.5179,107.1981 474.3819,107.6771 L470.9279,107.6771 L470.1409,112.0881 C469.5709,115.2341 468.4079,117.5141 466.6529,118.9271 C464.8969,120.3411 462.5039,121.0471 459.4719,121.0471 C458.2859,121.0471 457.2029,120.9161 456.2229,120.6551 C455.2429,120.3921 454.3929,119.9881 453.6759,119.4401 C452.9579,118.8931 452.3979,118.1981 451.9999,117.3541 C451.6009,116.5111 451.4019,115.5081 451.4019,114.3451 C451.4019,113.3881 451.5439,112.4931 451.8289,111.6601 C452.1139,110.8281 452.5079,110.0711 453.0089,109.3871 C453.5099,108.7021 454.0969,108.1101 454.7699,107.6091 C455.4419,107.1081 456.1779,106.7191 456.9749,106.4461 C456.7239,106.3091 456.4449,106.1271 456.1379,105.8991 C455.8299,105.6711 455.5509,105.3861 455.2999,105.0431 C455.0489,104.7011 454.8389,104.2971 454.6679,103.8291 C454.4959,103.3631 454.4109,102.8321 454.4109,102.2401 C454.4109,101.1461 454.6379,100.1881 455.0949,99.3671 C455.5509,98.5461 456.1429,97.8631 456.8729,97.3161 C457.6019,96.7681 458.4289,96.3581 459.3519,96.0841 C460.2749,95.8111 461.2159,95.6741 462.1739,95.6741 C462.9479,95.6741 463.6999,95.7251 464.4299,95.8281 C465.1599,95.9311 465.8439,96.1081 466.4819,96.3581 C466.4139,96.8601 466.3159,97.3161 466.1909,97.7261 C466.0659,98.1361 465.8779,98.5461 465.6269,98.9571 C465.0569,98.7751 464.4989,98.6321 463.9519,98.5301 C463.4039,98.4271 462.7999,98.3751 462.1389,98.3751 C460.9079,98.3751 459.8929,98.6951 459.0959,99.3331 C458.2979,99.9721 457.8989,100.8711 457.8989,102.0341 C457.8989,103.0611 458.2349,103.7951 458.9079,104.2401 C459.5799,104.6851 460.3719,104.9061 461.2839,104.9061 L468.0899,104.9061 Z" id="Fill-74" fill="#A2AFBD"></path>
            <path d="M488.1276,96.0502 C488.4006,96.0052 488.6906,95.9712 488.9996,95.9472 C489.3076,95.9252 489.6196,95.9132 489.9396,95.9132 C490.2356,95.9132 490.5216,95.9252 490.7946,95.9472 C491.0676,95.9712 491.3416,96.0052 491.6146,96.0502 L487.8536,117.5602 L497.0186,117.5602 C496.9726,118.1532 496.9156,118.6882 496.8476,119.1662 C496.7786,119.6462 496.6426,120.1362 496.4376,120.6372 L483.8186,120.6372 L488.1276,96.0502 Z" id="Fill-76" fill="#A2AFBD"></path>
            <path d="M507.2087,118.3461 C508.2797,118.3461 509.1967,118.0551 509.9617,117.4741 C510.7247,116.8931 511.3467,116.1581 511.8247,115.2681 C512.3037,114.3791 512.6567,113.4161 512.8847,112.3791 C513.1127,111.3421 513.2277,110.3671 513.2277,109.4551 C513.2277,108.1561 512.9367,107.1641 512.3547,106.4801 C511.7727,105.7961 510.9467,105.4541 509.8757,105.4541 C508.8037,105.4541 507.8927,105.7501 507.1407,106.3431 C506.3877,106.9361 505.7717,107.6771 505.2937,108.5661 C504.8147,109.4551 504.4667,110.4181 504.2507,111.4551 C504.0337,112.4931 503.9257,113.4561 503.9257,114.3451 C503.9257,115.6451 504.2047,116.6361 504.7637,117.3201 C505.3217,118.0041 506.1367,118.3461 507.2087,118.3461 M506.8667,121.0471 C504.7467,121.0471 503.1497,120.4601 502.0787,119.2861 C501.0077,118.1131 500.4717,116.4531 500.4717,114.3111 C500.4717,113.0571 500.6657,111.7411 501.0537,110.3621 C501.4397,108.9821 502.0387,107.7281 502.8487,106.6001 C503.6567,105.4711 504.6717,104.5361 505.8927,103.7951 C507.1107,103.0551 508.5537,102.6841 510.2177,102.6841 C512.3597,102.6841 513.9677,103.2781 515.0387,104.4621 C516.1097,105.6481 516.6467,107.3131 516.6467,109.4551 C516.6467,110.7321 516.4527,112.0541 516.0647,113.4221 C515.6777,114.7891 515.0847,116.0371 514.2867,117.1661 C513.4887,118.2941 512.4747,119.2241 511.2437,119.9531 C510.0127,120.6831 508.5537,121.0471 506.8667,121.0471" id="Fill-78" fill="#A2AFBD"></path>
            <path d="M532.0349,105.7279 C531.4869,105.5909 530.8719,105.5229 530.1879,105.5229 C529.0479,105.5229 528.0219,105.7849 527.1099,106.3089 C526.1979,106.8329 525.4229,107.5349 524.7849,108.4129 C524.1459,109.2909 523.6499,110.2819 523.2979,111.3869 C522.9439,112.4939 522.7669,113.6269 522.7669,114.7899 C522.7669,115.8839 522.9719,116.7339 523.3829,117.3369 C523.7939,117.9419 524.3749,118.2439 525.1269,118.2439 C525.8559,118.2439 526.5459,118.0159 527.1959,117.5599 C527.8459,117.1039 528.4379,116.4769 528.9739,115.6789 C529.5099,114.8809 529.9759,113.9409 530.3759,112.8579 C530.7739,111.7749 531.0989,110.6069 531.3499,109.3529 L532.0349,105.7279 Z M530.2569,116.6699 C530.0049,117.1719 529.6749,117.6789 529.2639,118.1919 C528.8539,118.7059 528.3759,119.1719 527.8279,119.5939 C527.2809,120.0159 526.6709,120.3639 525.9989,120.6369 C525.3259,120.9109 524.6019,121.0469 523.8279,121.0469 C522.3229,121.0469 521.1879,120.5509 520.4249,119.5599 C519.6609,118.5689 519.2789,117.2169 519.2789,115.5079 C519.2789,113.8889 519.5299,112.3099 520.0319,110.7719 C520.5329,109.2329 521.2739,107.8649 522.2549,106.6679 C523.2339,105.4709 524.4539,104.5079 525.9139,103.7789 C527.3719,103.0489 529.0709,102.6839 531.0089,102.6839 C531.8289,102.6839 532.6669,102.7479 533.5219,102.8729 C534.3769,102.9989 535.1229,103.1749 535.7619,103.4029 C535.2369,106.2749 534.7299,109.1239 534.2399,111.9519 C533.7499,114.7789 533.2429,117.6279 532.7189,120.4999 C532.4449,122.0499 531.9879,123.3609 531.3499,124.4329 C530.7119,125.5039 529.9259,126.3759 528.9909,127.0489 C528.0559,127.7209 526.9959,128.2109 525.8109,128.5189 C524.6249,128.8269 523.3479,128.9809 521.9809,128.9809 C521.2059,128.9809 520.4309,128.9129 519.6559,128.7759 C518.8809,128.6389 518.2419,128.4679 517.7409,128.2629 C517.7639,127.2829 518.0139,126.3709 518.4929,125.5269 C518.9489,125.6409 519.4839,125.7599 520.0999,125.8859 C520.7159,126.0109 521.3879,126.0749 522.1179,126.0749 C523.1429,126.0749 524.0559,125.9719 524.8529,125.7659 C525.6509,125.5609 526.3579,125.2189 526.9729,124.7409 C527.5889,124.2619 528.1069,123.6339 528.5289,122.8599 C528.9509,122.0839 529.2869,121.1159 529.5379,119.9539 L530.2569,116.6699 Z" id="Fill-80" fill="#A2AFBD"></path>
            <path d="M541.403,99.4701 C541.403,98.8091 541.46,98.1821 541.574,97.5891 C541.688,96.9961 541.836,96.3921 542.018,95.7771 C542.338,95.7321 542.679,95.6971 543.045,95.6741 C543.409,95.6521 543.728,95.6401 544.002,95.6401 C544.275,95.6401 544.589,95.6521 544.942,95.6741 C545.296,95.6971 545.62,95.7321 545.917,95.7771 C545.894,96.4381 545.826,97.0711 545.712,97.6741 C545.597,98.2791 545.449,98.8771 545.267,99.4701 C544.948,99.5161 544.605,99.5441 544.241,99.5551 C543.877,99.5671 543.557,99.5731 543.284,99.5731 C543.033,99.5731 542.725,99.5671 542.36,99.5551 C541.996,99.5441 541.676,99.5161 541.403,99.4701 L541.403,99.4701 Z M541.437,105.7961 L539.317,105.7961 C539.317,105.3401 539.345,104.8961 539.402,104.4621 C539.459,104.0301 539.579,103.5741 539.761,103.0951 L545.233,103.0951 L542.155,120.6371 C541.904,120.6831 541.614,120.7111 541.283,120.7231 C540.953,120.7341 540.662,120.7401 540.411,120.7401 C540.16,120.7401 539.898,120.7341 539.625,120.7231 C539.351,120.7111 539.089,120.6831 538.839,120.6371 L541.437,105.7961 Z" id="Fill-82" fill="#A2AFBD"></path>
            <path d="M552.3464,112.3959 C552.0034,112.2589 551.6394,112.0879 551.2514,111.8829 C550.8644,111.6779 550.5104,111.4169 550.1914,111.0959 C549.8714,110.7779 549.6044,110.3739 549.3884,109.8819 C549.1704,109.3929 549.0634,108.8049 549.0634,108.1219 C549.0634,107.2789 549.2344,106.5199 549.5754,105.8469 C549.9174,105.1749 550.3974,104.6049 551.0124,104.1379 C551.6274,103.6699 552.3634,103.3119 553.2174,103.0609 C554.0734,102.8099 555.0244,102.6839 556.0734,102.6839 C557.0074,102.6839 557.8974,102.7869 558.7414,102.9919 C559.5834,103.1979 560.2444,103.4249 560.7244,103.6759 C560.5404,104.5649 560.2104,105.4199 559.7324,106.2409 C559.3444,106.0579 558.8094,105.8709 558.1244,105.6759 C557.4414,105.4829 556.7114,105.3859 555.9364,105.3859 C554.9554,105.3859 554.1414,105.5569 553.4924,105.8989 C552.8414,106.2409 552.5174,106.8339 552.5174,107.6769 C552.5174,108.2019 552.6704,108.6399 552.9784,108.9939 C553.2854,109.3469 553.8384,109.6829 554.6374,110.0019 L555.3894,110.3439 C555.8224,110.5489 556.2724,110.7659 556.7404,110.9939 C557.2064,111.2219 557.6294,111.5009 558.0054,111.8319 C558.3814,112.1629 558.6894,112.5619 558.9284,113.0289 C559.1674,113.4969 559.2874,114.0719 559.2874,114.7549 C559.2874,115.8499 559.0824,116.7909 558.6724,117.5769 C558.2614,118.3629 557.6984,119.0129 556.9794,119.5259 C556.2614,120.0389 555.4284,120.4199 554.4834,120.6709 C553.5364,120.9219 552.5174,121.0469 551.4224,121.0469 C550.5104,121.0469 549.6164,120.9669 548.7384,120.8079 C547.8604,120.6479 547.1364,120.4439 546.5674,120.1929 C546.6124,119.6919 546.6984,119.2119 546.8234,118.7559 C546.9484,118.2999 547.1364,117.8679 547.3874,117.4569 C547.9804,117.7079 548.6754,117.9079 549.4734,118.0549 C550.2714,118.2039 551.0124,118.2779 551.6964,118.2779 C552.2654,118.2779 552.8014,118.2259 553.3034,118.1239 C553.8044,118.0209 554.2384,117.8619 554.6034,117.6449 C554.9674,117.4279 555.2574,117.1379 555.4754,116.7729 C555.6914,116.4089 555.7994,115.9529 555.7994,115.4049 C555.7994,114.6989 555.5944,114.1679 555.1844,113.8149 C554.7744,113.4619 554.1924,113.1369 553.4404,112.8399 L552.3464,112.3959 Z" id="Fill-84" fill="#A2AFBD"></path>
            <path d="M565.7155,105.7963 L562.9445,105.7963 C562.9445,105.3403 562.9805,104.9013 563.0485,104.4803 C563.1165,104.0583 563.2415,103.5963 563.4245,103.0953 L566.1595,103.0953 C566.2745,102.5023 566.3765,101.8983 566.4675,101.2823 C566.5585,100.6663 566.6045,100.0283 566.6045,99.3673 L566.6045,98.8193 C567.0605,98.5923 567.6075,98.4213 568.2455,98.3073 C568.8835,98.1933 569.4315,98.1363 569.8875,98.1363 C569.9095,98.3413 569.9265,98.5463 569.9385,98.7513 C569.9495,98.9573 569.9555,99.1743 569.9555,99.4013 C569.9555,100.1093 569.8635,100.9863 569.6825,102.0343 L569.4775,103.0953 L573.8885,103.0953 C573.8885,103.5963 573.8545,104.0583 573.7855,104.4803 C573.7175,104.9013 573.6035,105.3403 573.4445,105.7963 L569.0665,105.7963 L567.7335,113.2163 C567.6185,113.7413 567.5165,114.2823 567.4255,114.8413 C567.3335,115.4003 567.2885,115.9063 567.2885,116.3623 C567.2885,117.0463 567.4645,117.5203 567.8185,117.7813 C568.1715,118.0443 568.6445,118.1753 569.2375,118.1753 C569.6245,118.1753 569.9785,118.1473 570.2975,118.0893 C570.6165,118.0323 570.9355,117.9583 571.2545,117.8673 C571.3235,118.0953 571.3805,118.3463 571.4265,118.6193 C571.4715,118.8933 571.4945,119.1903 571.4945,119.5083 L571.4945,120.0043 C571.4945,120.1753 571.4835,120.3523 571.4605,120.5343 C571.1635,120.6263 570.7765,120.7113 570.2975,120.7913 C569.8195,120.8703 569.3065,120.9103 568.7585,120.9103 C568.0285,120.9103 567.3615,120.8593 566.7585,120.7573 C566.1535,120.6543 565.6355,120.4603 565.2025,120.1753 C564.7695,119.8913 564.4335,119.5033 564.1945,119.0133 C563.9535,118.5233 563.8345,117.8793 563.8345,117.0803 C563.8345,116.6483 563.8735,116.1863 563.9535,115.6953 C564.0335,115.2053 564.1195,114.6983 564.2105,114.1743 L565.7155,105.7963 Z" id="Fill-86" fill="#A2AFBD"></path>
            <path d="M577.9577,99.4701 C577.9577,98.8091 578.0147,98.1821 578.1287,97.5891 C578.2427,96.9961 578.3907,96.3921 578.5727,95.7771 C578.8927,95.7321 579.2337,95.6971 579.5997,95.6741 C579.9637,95.6521 580.2827,95.6401 580.5567,95.6401 C580.8297,95.6401 581.1437,95.6521 581.4967,95.6741 C581.8507,95.6971 582.1747,95.7321 582.4717,95.7771 C582.4487,96.4381 582.3807,97.0711 582.2667,97.6741 C582.1517,98.2791 582.0037,98.8771 581.8217,99.4701 C581.5027,99.5161 581.1597,99.5441 580.7957,99.5551 C580.4317,99.5671 580.1117,99.5731 579.8387,99.5731 C579.5877,99.5731 579.2797,99.5671 578.9147,99.5551 C578.5507,99.5441 578.2307,99.5161 577.9577,99.4701 L577.9577,99.4701 Z M577.9917,105.7961 L575.8717,105.7961 C575.8717,105.3401 575.8997,104.8961 575.9567,104.4621 C576.0137,104.0301 576.1337,103.5741 576.3157,103.0951 L581.7877,103.0951 L578.7097,120.6371 C578.4587,120.6831 578.1687,120.7111 577.8377,120.7231 C577.5077,120.7341 577.2167,120.7401 576.9657,120.7401 C576.7147,120.7401 576.4527,120.7341 576.1797,120.7231 C575.9057,120.7111 575.6437,120.6831 575.3937,120.6371 L577.9917,105.7961 Z" id="Fill-88" fill="#A2AFBD"></path>
            <path d="M595.9782,117.5599 C596.1612,117.8789 596.3032,118.2599 596.4062,118.7059 C596.5082,119.1499 596.5592,119.6579 596.5592,120.2269 C595.8982,120.4999 595.1342,120.7059 594.2682,120.8419 C593.4022,120.9789 592.6152,121.0469 591.9092,121.0469 C589.4012,121.0469 587.5542,120.4319 586.3692,119.2009 C585.1832,117.9699 584.5902,116.2479 584.5902,114.0379 C584.5902,112.6689 584.8132,111.3079 585.2572,109.9509 C585.7022,108.5949 586.3632,107.3749 587.2412,106.2919 C588.1192,105.2089 589.1902,104.3369 590.4562,103.6759 C591.7202,103.0149 593.1742,102.6839 594.8152,102.6839 C595.5682,102.6839 596.2862,102.7519 596.9692,102.8889 C597.6542,103.0269 598.2472,103.1859 598.7482,103.3689 C598.7252,103.8009 598.6332,104.2749 598.4742,104.7879 C598.3152,105.2999 598.1092,105.7499 597.8592,106.1379 C597.4032,105.9559 596.9072,105.8019 596.3722,105.6759 C595.8352,105.5509 595.2712,105.4889 594.6782,105.4889 C593.5612,105.4889 592.5922,105.7339 591.7722,106.2239 C590.9522,106.7139 590.2672,107.3519 589.7202,108.1379 C589.1732,108.9249 588.7682,109.8089 588.5062,110.7889 C588.2442,111.7689 588.1132,112.7379 588.1132,113.6959 C588.1132,115.2459 588.4952,116.3909 589.2582,117.1319 C590.0222,117.8729 591.0772,118.2439 592.4212,118.2439 C593.0142,118.2439 593.6012,118.1919 594.1832,118.0889 C594.7642,117.9869 595.3632,117.8109 595.9782,117.5599" id="Fill-90" fill="#A2AFBD"></path>
            <path d="M604.5964,112.3959 C604.2534,112.2589 603.8894,112.0879 603.5014,111.8829 C603.1144,111.6779 602.7604,111.4169 602.4414,111.0959 C602.1214,110.7779 601.8544,110.3739 601.6384,109.8819 C601.4204,109.3929 601.3134,108.8049 601.3134,108.1219 C601.3134,107.2789 601.4844,106.5199 601.8254,105.8469 C602.1674,105.1749 602.6474,104.6049 603.2624,104.1379 C603.8774,103.6699 604.6134,103.3119 605.4674,103.0609 C606.3234,102.8099 607.2744,102.6839 608.3234,102.6839 C609.2574,102.6839 610.1474,102.7869 610.9914,102.9919 C611.8334,103.1979 612.4944,103.4249 612.9744,103.6759 C612.7904,104.5649 612.4604,105.4199 611.9824,106.2409 C611.5944,106.0579 611.0594,105.8709 610.3744,105.6759 C609.6914,105.4829 608.9614,105.3859 608.1864,105.3859 C607.2054,105.3859 606.3914,105.5569 605.7424,105.8989 C605.0914,106.2409 604.7674,106.8339 604.7674,107.6769 C604.7674,108.2019 604.9204,108.6399 605.2284,108.9939 C605.5354,109.3469 606.0884,109.6829 606.8874,110.0019 L607.6394,110.3439 C608.0724,110.5489 608.5224,110.7659 608.9904,110.9939 C609.4564,111.2219 609.8794,111.5009 610.2554,111.8319 C610.6314,112.1629 610.9394,112.5619 611.1784,113.0289 C611.4174,113.4969 611.5374,114.0719 611.5374,114.7549 C611.5374,115.8499 611.3324,116.7909 610.9224,117.5769 C610.5114,118.3629 609.9484,119.0129 609.2294,119.5259 C608.5114,120.0389 607.6784,120.4199 606.7334,120.6709 C605.7864,120.9219 604.7674,121.0469 603.6724,121.0469 C602.7604,121.0469 601.8664,120.9669 600.9884,120.8079 C600.1104,120.6479 599.3864,120.4439 598.8174,120.1929 C598.8624,119.6919 598.9484,119.2119 599.0734,118.7559 C599.1984,118.2999 599.3864,117.8679 599.6374,117.4569 C600.2304,117.7079 600.9254,117.9079 601.7234,118.0549 C602.5214,118.2039 603.2624,118.2779 603.9464,118.2779 C604.5154,118.2779 605.0514,118.2259 605.5534,118.1239 C606.0544,118.0209 606.4884,117.8619 606.8534,117.6449 C607.2174,117.4279 607.5074,117.1379 607.7254,116.7729 C607.9414,116.4089 608.0494,115.9529 608.0494,115.4049 C608.0494,114.6989 607.8444,114.1679 607.4344,113.8149 C607.0244,113.4619 606.4424,113.1369 605.6904,112.8399 L604.5964,112.3959 Z" id="Fill-92" fill="#A2AFBD"></path>
            <g id="Group-28" transform="translate(-17.000000, 67.000000)">
                <mask id="mask-8" fill="white">
                    <use xlink:href="#path-7"></use>
                </mask>
                <g id="Clip-27"></g>
            </g>
        </g>
    </g>
</svg>